<?xml version="1.0" standalone="no"?>
<!DOCTYPE svg PUBLIC "-//W3C//DTD SVG 20010904//EN"
 "http://www.w3.org/TR/2001/REC-SVG-20010904/DTD/svg10.dtd">
<svg version="1.0" xmlns="http://www.w3.org/2000/svg"
 width="250.000000pt" height="250.000000pt" viewBox="0 0 250.000000 250.000000"
 preserveAspectRatio="xMidYMid meet">
<metadata>
Created by potrace 1.14, written by Peter Selinger 2001-2017
</metadata>
<g transform="translate(0.000000,250.000000) scale(0.100000,-0.100000)"
fill="#000000" stroke="none">
<path d="M940 2345 l0 -155 -315 0 -315 0 0 -155 0 -155 -155 0 -155 0 0 -625
0 -625 155 0 155 0 0 -315 0 -315 315 0 315 0 0 155 0 155 310 0 310 0 0 -155
0 -155 315 0 315 0 0 315 0 315 155 0 155 0 0 625 0 625 -155 0 -155 0 0 155
0 155 -160 0 -160 0 0 155 0 155 -465 0 -465 0 0 -155z m310 -625 l0 -160
-155 0 -155 0 0 160 0 160 155 0 155 0 0 -160z m940 0 l0 -160 -160 0 -160 0
0 160 0 160 160 0 160 0 0 -160z"/>
</g>
</svg>
